<svg xmlns="http://www.w3.org/2000/svg" viewBox="0 0 1200 630"><defs><linearGradient id="bg" x1="0" x2="1" y1="0" y2="1"><stop offset="0%" stop-color="#1e3a5f"/><stop offset="100%" stop-color="#0f172a"/></linearGradient></defs><rect width="1200" height="630" fill="url(#bg)"/><path fill="#d97706" d="M0,420 Q200,380 400,400 T800,390 T1200,410 L1200,630 L0,630Z" opacity=".6"/><path fill="#059669" d="M0,460 Q300,430 600,450 T1200,440 L1200,630 L0,630Z" opacity=".6"/><path fill="#2563eb" d="M0,510 Q250,490 500,505 T1000,495 T1200,510 L1200,630 L0,630Z" opacity=".6"/><g transform="translate(540,120) scale(2.5)"><defs><clipPath id="hex2"><polygon points="16 1 29 8.5 29 23.5 16 31 3 23.5 3 8.5"/></clipPath></defs><g clip-path="url(#hex2)"><rect width="32" height="11" y="0" fill="#d97706"/><rect width="32" height="10" y="11" fill="#059669"/><rect width="32" height="11" y="21" fill="#2563eb"/></g><polygon fill="none" stroke="#fff" stroke-width="1.5" points="16 1 29 8.5 29 23.5 16 31 3 23.5 3 8.5"/></g><text x="600" y="280" fill="#fff" font-family="system-ui, sans-serif" font-size="52" font-weight="700" text-anchor="middle">Carte Géologique de France</text><text x="600" y="330" fill="#94a3b8" font-family="system-ui, sans-serif" font-size="24" text-anchor="middle">Carte interactive des formations géologiques</text><text x="600" y="375" fill="#64748b" font-family="system-ui, sans-serif" font-size="18" text-anchor="middle">13 régions | Pendages | Notices BRGM</text></svg>